<svg id="Layer_1" data-name="Layer 1" xmlns="http://www.w3.org/2000/svg" xmlns:xlink="http://www.w3.org/1999/xlink" viewBox="0 0 50 50"><defs><style>.cls-1{fill:url(#Безымянный_градиент_2);}.cls-2{fill:url(#Безымянный_градиент_3);}.cls-3{fill:url(#Безымянный_градиент_4);}.cls-4{fill:#fff;}.cls-5{fill:url(#Безымянный_градиент_5);}.cls-6{fill:url(#Безымянный_градиент_6);}.cls-7{fill:url(#Безымянный_градиент_7);}.cls-8{fill:url(#Безымянный_градиент_8);}.cls-9{fill:url(#Безымянный_градиент_9);}.cls-10{fill:url(#Безымянный_градиент_10);}</style><linearGradient id="Безымянный_градиент_2" x1="37.95" y1="47.55" x2="34" y2="41.52" gradientTransform="matrix(1, 0, 0, -1, 0, 52)" gradientUnits="userSpaceOnUse"><stop offset="0" stop-color="#fdb91a"/><stop offset="0.67" stop-color="#f7921e"/></linearGradient><linearGradient id="Безымянный_градиент_3" x1="31.42" y1="57.33" x2="33.7" y2="48.87" gradientTransform="matrix(1, 0.03, 0.03, -1, -11.95, 58.24)" xlink:href="#Безымянный_градиент_2"/><linearGradient id="Безымянный_градиент_4" x1="26.82" y1="55.07" x2="32.23" y2="50.47" gradientTransform="matrix(1, 0.06, 0.06, -1, -22.26, 64.4)" xlink:href="#Безымянный_градиент_2"/><linearGradient id="Безымянный_градиент_5" x1="-20.93" y1="11.47" x2="-9.74" y2="11.47" gradientTransform="matrix(1, -0.06, -0.06, -1, 21.58, 37.29)" xlink:href="#Безымянный_градиент_2"/><linearGradient id="Безымянный_градиент_6" x1="8.46" y1="9.91" x2="14.08" y2="16.77" xlink:href="#Безымянный_градиент_2"/><linearGradient id="Безымянный_градиент_7" x1="49.61" y1="36.67" x2="39.74" y2="32.29" xlink:href="#Безымянный_градиент_2"/><linearGradient id="Безымянный_градиент_8" x1="50.16" y1="19.2" x2="40.21" y2="23.52" xlink:href="#Безымянный_градиент_2"/><linearGradient id="Безымянный_градиент_9" x1="39.81" y1="7.81" x2="35.35" y2="14.03" xlink:href="#Безымянный_градиент_2"/><linearGradient id="Безымянный_градиент_10" x1="24.02" y1="5.16" x2="24.39" y2="12.01" xlink:href="#Безымянный_градиент_2"/></defs><title>sun2</title><path class="cls-1" d="M32.7,12.58S34.25,0,38.93,3.27C43.07,6.13,32.7,12.58,32.7,12.58Z" transform="translate(0 0)"/><path class="cls-2" d="M22.75,11.11S15.49.77,21.13,0C26.11-.63,22.75,11.11,22.75,11.11Z" transform="translate(0 0)"/><path class="cls-3" d="M13.95,15.72S1.56,13.18,5.16,8.77C8.33,4.87,13.95,15.72,13.95,15.72Z" transform="translate(0 0)"/><path class="cls-4" d="M9.24,10.46S5.6,9.26,6.76,8.7,9.24,10.46,9.24,10.46Z" transform="translate(0 0)"/><path class="cls-4" d="M22.43,4.15S20.8.68,22,1.14,22.43,4.15,22.43,4.15Z" transform="translate(0 0)"/><path class="cls-4" d="M37.34,7.56s1.21-3.64,1.76-2.48S37.34,7.56,37.34,7.56Z" transform="translate(0 0)"/><path class="cls-5" d="M11.16,25.91S.51,32.72,0,27.06C-.43,22,11.16,25.91,11.16,25.91Z" transform="translate(0 0)"/><path class="cls-6" d="M14.83,35.81s-4.36,11.86-8.19,7.65C3.27,39.74,14.83,35.81,14.83,35.81Z" transform="translate(0 0)"/><path class="cls-7" d="M37.82,19.73s9-8.84,10.68-3.4C49.95,21.15,37.82,19.73,37.82,19.73Z" transform="translate(0 0)"/><path class="cls-8" d="M39.15,29.07s12.48-2,10.67,3.42C48.22,37.26,39.15,29.07,39.15,29.07Z" transform="translate(0 0)"/><path class="cls-9" d="M34,36.26s11.19,5.87,6.52,9.11C36.34,48.24,34,36.26,34,36.26Z" transform="translate(0 0)"/><path class="cls-10" d="M24.17,38.8s5.26,11.49-.42,11.2C18.73,49.73,24.17,38.8,24.17,38.8Z" transform="translate(0 0)"/><path class="cls-4" d="M4.46,25.68s-3.66,1.15-3,0S4.46,25.68,4.46,25.68Z" transform="translate(0 0)"/><path class="cls-4" d="M8.94,39.62S7.22,43,6.84,41.82,8.94,39.62,8.94,39.62Z" transform="translate(0 0)"/><path class="cls-4" d="M44.61,18.7s3.2-2.11,2.92-.86S44.61,18.7,44.61,18.7Z" transform="translate(0 0)"/><path class="cls-4" d="M45.08,32s3.83.07,2.89.94S45.08,32,45.08,32Z" transform="translate(0 0)"/><path class="cls-4" d="M23,44.68s.72,3.76-.33,3S23,44.68,23,44.68Z" transform="translate(0 0)"/><path class="cls-4" d="M37.32,42.75s3.27,2,2,2.27S37.32,42.75,37.32,42.75Z" transform="translate(0 0)"/></svg>