<svg id="Layer_1" data-name="Layer 1" xmlns="http://www.w3.org/2000/svg" xmlns:xlink="http://www.w3.org/1999/xlink" viewBox="0 0 45.39 46.92"><defs><style>.cls-1{fill:url(#Безымянный_градиент_3);}.cls-2{fill:#fff;}.cls-3{fill:url(#Безымянный_градиент_5);}.cls-4{fill:url(#Безымянный_градиент_7);}.cls-5{fill:url(#Безымянный_градиент_9);}.cls-6{fill:url(#Безымянный_градиент_10);}</style><linearGradient id="Безымянный_градиент_3" x1="26.49" y1="55.19" x2="28.76" y2="46.72" gradientTransform="matrix(0.99, -0.16, -0.16, -0.99, -1.8, 62.71)" gradientUnits="userSpaceOnUse"><stop offset="0" stop-color="#fdb91a"/><stop offset="0.67" stop-color="#f7921e"/></linearGradient><linearGradient id="Безымянный_градиент_5" x1="-20.63" y1="11.45" x2="-9.43" y2="11.45" gradientTransform="matrix(1, -0.06, -0.06, -1, 21.58, 37.29)" xlink:href="#Безымянный_градиент_3"/><linearGradient id="Безымянный_градиент_7" x1="46.61" y1="41.69" x2="36.74" y2="37.31" gradientTransform="matrix(0.96, -0.29, -0.29, -0.96, 13.42, 62.06)" xlink:href="#Безымянный_градиент_3"/><linearGradient id="Безымянный_градиент_9" x1="43.73" y1="11.33" x2="39.27" y2="17.56" gradientTransform="matrix(0.95, -0.32, -0.32, -0.95, 6.37, 63.94)" xlink:href="#Безымянный_градиент_3"/><linearGradient id="Безымянный_градиент_10" x1="20.02" y1="6.16" x2="20.39" y2="13.01" gradientTransform="matrix(0.99, 0.17, 0.17, -0.99, -1.17, 48.47)" xlink:href="#Безымянный_градиент_3"/></defs><title>sun3</title><path class="cls-1" d="M18.78,12.76S9.69,4,15.08,2.18C19.85.59,18.78,12.76,18.78,12.76Z" transform="translate(-0.31 -2.04)"/><path class="cls-2" d="M17.15,6s-2.26-3.1-1-2.87S17.15,6,17.15,6Z" transform="translate(-0.31 -2.04)"/><path class="cls-3" d="M11.46,25.91S.82,32.72.32,27.06C-.12,22,11.46,25.91,11.46,25.91Z" transform="translate(-0.31 -2.04)"/><path class="cls-4" d="M35.78,16.2s6-11.1,9.21-6.37C47.8,14,35.78,16.2,35.78,16.2Z" transform="translate(-0.31 -2.04)"/><path class="cls-5" d="M36,33.48S48.49,35.42,45.11,40C42.13,44,36,33.48,36,33.48Z" transform="translate(-0.31 -2.04)"/><path class="cls-6" d="M21.12,37.91s3.23,12.22-2.32,11C13.9,47.75,21.12,37.91,21.12,37.91Z" transform="translate(-0.31 -2.04)"/><path class="cls-2" d="M4.77,25.68s-3.66,1.15-3,0S4.77,25.68,4.77,25.68Z" transform="translate(-0.31 -2.04)"/><path class="cls-2" d="M42,13.23s2.44-3,2.54-1.67S42,13.23,42,13.23Z" transform="translate(-0.31 -2.04)"/><path class="cls-2" d="M19,43.51s.07,3.83-.84,2.92S19,43.51,19,43.51Z" transform="translate(-0.31 -2.04)"/><path class="cls-2" d="M41.28,38.53s3.74.83,2.64,1.5S41.28,38.53,41.28,38.53Z" transform="translate(-0.31 -2.04)"/></svg>