<svg id="Layer_1" data-name="Layer 1" xmlns="http://www.w3.org/2000/svg" xmlns:xlink="http://www.w3.org/1999/xlink" viewBox="0 0 47.22 48.21"><defs><style>.cls-1{fill:url(#Безымянный_градиент_2);}.cls-2{fill:url(#Безымянный_градиент_4);}.cls-3{fill:#fff;}.cls-4{fill:url(#Безымянный_градиент_6);}.cls-5{fill:url(#Безымянный_градиент_8);}.cls-6{fill:url(#Безымянный_градиент_10);}</style><linearGradient id="Безымянный_градиент_2" x1="30.95" y1="49.55" x2="27" y2="43.52" gradientTransform="matrix(0.93, -0.38, -0.38, -0.93, 19.7, 59.64)" gradientUnits="userSpaceOnUse"><stop offset="0" stop-color="#fdb91a"/><stop offset="0.67" stop-color="#f7921e"/></linearGradient><linearGradient id="Безымянный_градиент_4" x1="24.99" y1="51.96" x2="30.4" y2="47.36" gradientTransform="matrix(1, 0.06, 0.06, -1, -22.26, 64.4)" xlink:href="#Безымянный_градиент_2"/><linearGradient id="Безымянный_градиент_6" x1="6.92" y1="12" x2="12.54" y2="18.85" gradientTransform="matrix(1, 0, 0, -1, 0, 52)" xlink:href="#Безымянный_градиент_2"/><linearGradient id="Безымянный_градиент_8" x1="38.91" y1="6.71" x2="28.95" y2="11.03" gradientTransform="matrix(0.63, 0.77, 0.77, -0.63, 4.29, 23.14)" xlink:href="#Безымянный_градиент_2"/><linearGradient id="Безымянный_градиент_10" x1="51.65" y1="29.5" x2="41.78" y2="25.12" gradientTransform="matrix(0.95, 0.32, 0.32, -0.95, -7.26, 36.2)" xlink:href="#Безымянный_градиент_2"/></defs><title>sun4</title><path class="cls-1" d="M27.83,11.58S24.52-.62,30.07.6C35,1.69,27.83,11.58,27.83,11.58Z" transform="translate(-2.5 -0.52)"/><path class="cls-2" d="M11.95,18.72S-.44,16.18,3.16,11.77C6.33,7.87,11.95,18.72,11.95,18.72Z" transform="translate(-2.5 -0.52)"/><path class="cls-3" d="M7.24,13.46S3.6,12.26,4.76,11.71,7.24,13.46,7.24,13.46Z" transform="translate(-2.5 -0.52)"/><path class="cls-3" d="M30.22,5.18s-.26-3.82.69-3S30.22,5.18,30.22,5.18Z" transform="translate(-2.5 -0.52)"/><path class="cls-4" d="M13.29,33.72S8.92,45.58,5.1,41.37C1.72,37.65,13.29,33.72,13.29,33.72Z" transform="translate(-2.5 -0.52)"/><path class="cls-5" d="M30,38.12s9.43,8.41,4.11,10.42C29.43,50.32,30,38.12,30,38.12Z" transform="translate(-2.5 -0.52)"/><path class="cls-3" d="M7.39,37.53S5.68,41,5.3,39.73,7.39,37.53,7.39,37.53Z" transform="translate(-2.5 -0.52)"/><path class="cls-3" d="M31.48,44.6s2.37,3,1.1,2.83S31.48,44.6,31.48,44.6Z" transform="translate(-2.5 -0.52)"/><path class="cls-6" d="M38.52,25.13s11.38-5.49,11.2.19C49.56,30.34,38.52,25.13,38.52,25.13Z" transform="translate(-2.5 -0.52)"/><path class="cls-3" d="M45.52,25.39s3.7-1,3,.12S45.52,25.39,45.52,25.39Z" transform="translate(-2.5 -0.52)"/></svg>